<?xml version="1.0" encoding="UTF-8" standalone="no"?>
<!-- Created with Inkscape (http://www.inkscape.org/) -->

<svg
   width="32"
   height="32"
   viewBox="0 0 8.4666666 8.4666666"
   version="1.1"
   id="svg5"
   xml:space="preserve"
   inkscape:version="1.2.1 (9c6d41e410, 2022-07-14)"
   sodipodi:docname="logo.svg"
   xmlns:inkscape="http://www.inkscape.org/namespaces/inkscape"
   xmlns:sodipodi="http://sodipodi.sourceforge.net/DTD/sodipodi-0.dtd"
   xmlns="http://www.w3.org/2000/svg"
   xmlns:svg="http://www.w3.org/2000/svg"><sodipodi:namedview
     id="namedview7"
     pagecolor="#ffffff"
     bordercolor="#000000"
     borderopacity="0.25"
     inkscape:showpageshadow="2"
     inkscape:pageopacity="0.0"
     inkscape:pagecheckerboard="0"
     inkscape:deskcolor="#d1d1d1"
     inkscape:document-units="px"
     showgrid="false"
     inkscape:zoom="13.455443"
     inkscape:cx="39.612221"
     inkscape:cy="25.825979"
     inkscape:window-width="1416"
     inkscape:window-height="1000"
     inkscape:window-x="488"
     inkscape:window-y="0"
     inkscape:window-maximized="0"
     inkscape:current-layer="layer1" /><defs
     id="defs2" /><g
     inkscape:label="Capa 1"
     inkscape:groupmode="layer"
     id="layer1"><g
       id="g2139"
       style="stroke:none;stroke-width:5.29167;stroke-dasharray:none;stroke-opacity:1"
       inkscape:export-filename="logo.png"
       inkscape:export-xdpi="96"
       inkscape:export-ydpi="96"
       transform="matrix(0.032,0,0,0.032,-6.5368358e-6,-6.5368358e-6)"><rect
         style="fill:#10171d;fill-opacity:1;stroke:none;stroke-width:5.29167;stroke-linecap:round;stroke-dasharray:none;stroke-opacity:1;stop-color:#000000"
         id="rect111"
         width="264.58334"
         height="264.58334"
         x="-6.7529295e-06"
         y="-6.7529295e-06"
         ry="54.282429" /><g
         aria-label="B"
         id="text644"
         style="font-size:225.177px;-inkscape-font-specification:'FiraCode Nerd Font';text-align:center;fill:#ffffff;stroke:none;stroke-width:5.29167;stroke-linecap:round;stroke-dasharray:none;stroke-opacity:1;stop-color:#000000"><path
           d="m 84.666729,211.66656 q -7.430841,0 -11.484027,-3.828 -3.828009,-4.05319 -3.828009,-11.48403 V 68.228815 q 0,-7.430841 3.828009,-11.25885 4.053186,-4.053186 11.484027,-4.053186 h 54.042481 q 16.6631,0 28.3723,4.953894 11.70921,4.953894 17.78898,14.186151 6.30496,9.232257 6.30496,22.067346 0,14.41133 -8.33155,24.31912 -8.33155,9.90778 -22.74288,13.28544 v -3.37766 q 16.6631,2.47695 25.89536,12.60992 9.23226,10.13296 9.23226,26.34571 0,21.16663 -14.41133,32.87584 -14.18615,11.48402 -39.63115,11.48402 z M 97.051464,189.8244 h 40.531856 q 15.31204,0 22.5177,-5.85461 7.20567,-6.07978 7.20567,-18.01416 0,-12.15955 -7.20567,-18.01416 -7.20566,-5.8546 -22.5177,-5.8546 H 97.051464 Z m 0,-69.5797 h 36.703856 q 14.86168,0 22.06734,-5.62942 7.43084,-5.8546 7.43084,-17.113455 0,-11.25885 -7.43084,-16.888275 -7.20566,-5.854602 -22.06734,-5.854602 H 97.051464 Z"
           style="font-weight:bold;font-family:Nunito;-inkscape-font-specification:'Nunito Bold';stroke:none;stroke-width:5.29167;stroke-dasharray:none;stroke-opacity:1"
           id="path2087" /></g></g></g></svg>
